<mxfile host="65bd71144e" modified="2020-12-28T14:25:21.181Z" agent="5.0 (Macintosh; Intel Mac OS X 10_15_7) AppleWebKit/537.36 (KHTML, like Gecko) Code/1.52.1 Chrome/83.0.4103.122 Electron/9.3.5 Safari/537.36" etag="ZXSlM7m1J9B2bPV3x0x7" version="13.10.0" type="embed">
    <diagram id="pTlcovQPD0OpbJusg8Xm" name="Page-1">
        <mxGraphModel dx="449" dy="344" grid="1" gridSize="10" guides="1" tooltips="1" connect="1" arrows="1" fold="1" page="1" pageScale="1" pageWidth="850" pageHeight="1100" math="0" shadow="0">
            <root>
                <mxCell id="0"/>
                <mxCell id="1" parent="0"/>
                <mxCell id="4" value="そのIDが7秒以内に検出されてものか" style="rhombus;whiteSpace=wrap;html=1;fillColor=none;strokeColor=#3399FF;fontColor=#007FFF;" parent="1" vertex="1">
                    <mxGeometry x="312.5" y="140" width="250" height="80" as="geometry"/>
                </mxCell>
                <mxCell id="13" style="edgeStyle=orthogonalEdgeStyle;rounded=0;orthogonalLoop=1;jettySize=auto;html=1;entryX=0.5;entryY=0;entryDx=0;entryDy=0;fillColor=none;strokeColor=#3399FF;fontColor=#007FFF;" parent="1" source="5" target="4" edge="1">
                    <mxGeometry relative="1" as="geometry"/>
                </mxCell>
                <mxCell id="5" value="データベースのIDを取得" style="rounded=1;whiteSpace=wrap;html=1;fillColor=none;strokeColor=#3399FF;fontColor=#007FFF;" parent="1" vertex="1">
                    <mxGeometry x="365" y="60" width="145" height="40" as="geometry"/>
                </mxCell>
                <mxCell id="6" value="IO" style="shape=process;whiteSpace=wrap;html=1;backgroundOutline=1;size=0.16666666666666666;fillColor=none;strokeColor=#3399FF;fontColor=#007FFF;" parent="1" vertex="1">
                    <mxGeometry x="300" y="275" width="120" height="40" as="geometry"/>
                </mxCell>
                <mxCell id="7" value="次にタッチができるまでの秒数を表示" style="rounded=0;whiteSpace=wrap;html=1;fillColor=none;strokeColor=#3399FF;fontColor=#007FFF;" parent="1" vertex="1">
                    <mxGeometry x="460" y="270" width="120" height="50" as="geometry"/>
                </mxCell>
                <mxCell id="8" value="" style="endArrow=classic;html=1;exitX=0.5;exitY=1;exitDx=0;exitDy=0;entryX=0.5;entryY=0;entryDx=0;entryDy=0;fillColor=none;strokeColor=#3399FF;fontColor=#007FFF;" parent="1" source="4" target="7" edge="1">
                    <mxGeometry width="50" height="50" relative="1" as="geometry">
                        <mxPoint x="460" y="450" as="sourcePoint"/>
                        <mxPoint x="510" y="400" as="targetPoint"/>
                        <Array as="points">
                            <mxPoint x="438" y="240"/>
                            <mxPoint x="520" y="240"/>
                        </Array>
                    </mxGeometry>
                </mxCell>
                <mxCell id="9" value="" style="endArrow=classic;html=1;exitX=0;exitY=0.5;exitDx=0;exitDy=0;entryX=0.5;entryY=0;entryDx=0;entryDy=0;fillColor=none;strokeColor=#3399FF;fontColor=#007FFF;" parent="1" source="4" target="6" edge="1">
                    <mxGeometry width="50" height="50" relative="1" as="geometry">
                        <mxPoint x="220" y="410" as="sourcePoint"/>
                        <mxPoint x="270" y="360" as="targetPoint"/>
                        <Array as="points">
                            <mxPoint x="313" y="230"/>
                            <mxPoint x="360" y="230"/>
                        </Array>
                    </mxGeometry>
                </mxCell>
                <mxCell id="10" value="" style="rounded=1;whiteSpace=wrap;html=1;fillColor=none;strokeColor=#3399FF;fontColor=#007FFF;" parent="1" vertex="1">
                    <mxGeometry x="378" y="400" width="120" height="30" as="geometry"/>
                </mxCell>
                <mxCell id="11" value="" style="endArrow=classic;html=1;exitX=0.5;exitY=1;exitDx=0;exitDy=0;entryX=0.317;entryY=-0.067;entryDx=0;entryDy=0;entryPerimeter=0;fillColor=none;strokeColor=#3399FF;fontColor=#007FFF;" parent="1" source="6" target="10" edge="1">
                    <mxGeometry width="50" height="50" relative="1" as="geometry">
                        <mxPoint x="290" y="420" as="sourcePoint"/>
                        <mxPoint x="340" y="370" as="targetPoint"/>
                        <Array as="points">
                            <mxPoint x="360" y="350"/>
                            <mxPoint x="416" y="350"/>
                        </Array>
                    </mxGeometry>
                </mxCell>
                <mxCell id="12" value="" style="endArrow=classic;html=1;exitX=0.5;exitY=1;exitDx=0;exitDy=0;entryX=0.6;entryY=-0.133;entryDx=0;entryDy=0;entryPerimeter=0;fillColor=none;strokeColor=#3399FF;fontColor=#007FFF;" parent="1" source="7" target="10" edge="1">
                    <mxGeometry width="50" height="50" relative="1" as="geometry">
                        <mxPoint x="620" y="450" as="sourcePoint"/>
                        <mxPoint x="670" y="400" as="targetPoint"/>
                        <Array as="points">
                            <mxPoint x="520" y="350"/>
                            <mxPoint x="450" y="350"/>
                        </Array>
                    </mxGeometry>
                </mxCell>
                <mxCell id="14" value="YES" style="text;html=1;strokeColor=none;fillColor=none;align=center;verticalAlign=middle;whiteSpace=wrap;rounded=0;fontColor=#007FFF;fontSize=10;" vertex="1" parent="1">
                    <mxGeometry x="438" y="215" width="40" height="20" as="geometry"/>
                </mxCell>
                <mxCell id="15" value="NO" style="text;html=1;strokeColor=none;fillColor=none;align=center;verticalAlign=middle;whiteSpace=wrap;rounded=0;fontColor=#007FFF;fontSize=10;" vertex="1" parent="1">
                    <mxGeometry x="280" y="180" width="40" height="20" as="geometry"/>
                </mxCell>
            </root>
        </mxGraphModel>
    </diagram>
</mxfile>